<?xml version="1.0" standalone="no"?>
<!DOCTYPE svg PUBLIC "-//W3C//DTD SVG 20010904//EN"
 "http://www.w3.org/TR/2001/REC-SVG-20010904/DTD/svg10.dtd">
<svg version="1.0" xmlns="http://www.w3.org/2000/svg"
 width="800.000000pt" height="480.000000pt" viewBox="0 0 800.000000 480.000000"
 preserveAspectRatio="xMidYMid meet">

<g transform="translate(0.000000,480.000000) scale(0.100000,-0.100000)"
fill="#000000" stroke="none">
<path d="M4049 4236 c-3 -3 -30 -9 -60 -13 l-54 -8 -5 -55 -5 -55 -20 33 c-38
62 -114 60 -176 -6 -50 -53 -80 -138 -86 -242 -7 -117 14 -199 84 -330 110
-205 107 -197 107 -290 0 -62 -4 -94 -17 -117 -51 -95 -127 36 -114 195 4 58
3 62 -14 57 -11 -3 -27 -7 -37 -10 -15 -4 -22 -30 -40 -148 -28 -183 -28 -191
1 -183 12 3 30 6 40 6 12 0 17 8 17 30 0 37 12 38 31 3 20 -38 67 -55 114 -42
51 14 118 79 146 142 44 102 27 203 -70 394 -71 142 -93 223 -94 343 -1 109
11 163 40 174 40 16 63 -49 63 -174 0 -47 -4 -112 -10 -144 -5 -33 -8 -62 -6
-64 2 -2 23 0 47 5 l43 8 43 235 c40 218 47 271 32 256z"/>
<path d="M4110 4030 c0 -72 4 -120 10 -120 5 0 28 36 50 80 l40 80 65 0 c35 0
66 -3 68 -7 3 -6 -28 -827 -32 -841 -1 -2 -25 -2 -53 0 l-53 3 -3 -47 c-4 -56
-28 -52 208 -35 l155 12 3 28 c3 26 2 27 -45 27 -26 0 -54 4 -61 8 -10 7 -6
93 18 422 17 228 34 418 39 423 4 4 35 7 67 5 l59 -3 35 -67 c19 -38 38 -68
41 -68 7 0 19 104 19 165 l0 42 -122 6 c-66 4 -208 7 -315 7 l-193 0 0 -120z"/>
<path d="M5543 4143 c-42 -4 -43 -5 -43 -40 l0 -36 45 5 c40 5 45 3 45 -14 0
-25 -58 -743 -66 -819 l-6 -57 -40 6 -41 5 6 -33 c4 -18 7 -36 7 -41 0 -12
141 -11 218 1 245 40 368 189 403 490 30 262 -25 444 -155 513 -36 19 -58 22
-186 23 -80 1 -164 -1 -187 -3z m309 -91 c50 -57 61 -122 55 -326 -7 -258 -50
-408 -142 -500 -31 -31 -80 -56 -89 -45 -4 6 35 882 40 898 3 10 18 12 56 9
42 -4 57 -11 80 -36z"/>
<path d="M4780 4085 c0 -43 1 -45 30 -45 l30 0 -7 -72 c-5 -40 -8 -215 -8
-388 0 -302 1 -318 22 -375 54 -144 192 -187 299 -93 92 81 138 285 152 683
l7 190 33 3 c29 3 32 6 32 38 l0 34 -48 0 c-27 0 -84 3 -126 7 l-77 6 3 -44 3
-44 49 -3 49 -3 -7 -197 c-15 -424 -48 -578 -129 -606 -108 -38 -133 156 -101
762 l6 112 28 0 c32 0 60 23 60 49 0 16 -14 19 -112 24 -62 4 -130 7 -150 7
l-38 0 0 -45z"/>
<path d="M6092 4089 c3 -43 4 -44 39 -47 l36 -3 87 -253 88 -253 -9 -154 -8
-154 -46 3 c-41 3 -47 1 -52 -20 -4 -13 -7 -34 -7 -47 l0 -24 103 7 c251 16
257 17 257 41 0 19 -7 23 -52 29 l-51 7 6 167 6 167 89 240 88 240 47 3 c44 3
47 5 47 31 0 27 -2 28 -67 34 -38 4 -90 7 -117 7 -45 0 -48 -1 -42 -22 3 -13
6 -29 6 -35 0 -7 11 -13 25 -13 14 0 25 -2 25 -5 0 -18 -144 -385 -151 -385
-5 0 -9 2 -9 4 0 2 -27 91 -60 196 -33 105 -60 196 -60 201 0 5 14 9 30 9 24
0 33 6 41 26 5 15 8 28 7 29 -2 2 -70 6 -151 10 l-148 7 3 -43z"/>
<path d="M1685 3714 c-385 -69 -720 -321 -903 -679 -49 -95 -96 -219 -80 -209
8 5 9 2 5 -10 -16 -41 -46 -218 -51 -296 -6 -96 7 -53 19 64 5 48 10 65 16 55
7 -9 8 0 4 26 -5 31 -4 37 5 25 9 -12 10 -7 5 20 -4 23 -3 30 3 22 7 -10 11
-4 16 22 4 20 4 41 0 48 -4 6 -3 8 3 5 5 -3 18 17 28 46 57 162 165 330 294
457 194 190 424 303 702 345 163 25 386 -2 560 -68 525 -198 851 -757 765
-1312 -41 -264 -108 -414 -293 -655 -24 -32 -22 -31 22 10 47 43 48 44 28 11
-35 -56 -161 -177 -259 -247 -111 -78 -131 -101 -48 -55 190 106 365 289 466
488 108 212 158 407 160 627 0 53 4 96 9 96 5 0 6 -62 4 -137 -11 -292 -95
-545 -252 -753 -29 -40 -50 -77 -46 -83 3 -7 2 -9 -2 -4 -10 8 -127 -102 -120
-114 3 -4 -3 -13 -12 -20 -12 -10 -14 -10 -9 -1 13 22 -9 12 -49 -24 -22 -20
-32 -34 -22 -30 25 8 21 1 -10 -20 -24 -15 -26 -15 -14 -1 20 25 5 21 -42 -12
-107 -73 -319 -160 -433 -177 -39 -5 -45 -9 -29 -15 12 -5 -1 -7 -35 -4 -39 3
-46 2 -25 -4 25 -6 16 -9 -50 -15 -101 -9 -115 -14 -45 -15 76 -1 223 24 322
55 405 127 738 466 848 864 41 148 53 234 53 380 0 315 -76 556 -251 790 -195
261 -499 449 -819 505 -109 19 -329 18 -438 -1z m502 -2550 c-3 -3 -12 -4 -19
-1 -8 3 -5 6 6 6 11 1 17 -2 13 -5z"/>
<path d="M1501 3054 c-217 -85 -396 -156 -398 -158 -2 -1 86 -41 195 -88 l197
-85 3 -109 c2 -92 0 -115 -18 -157 -26 -60 -50 -181 -50 -252 0 -67 29 -161
69 -223 65 -101 245 -251 369 -306 53 -24 68 -20 190 56 156 97 291 251 322
368 27 99 7 278 -41 372 -17 32 -19 55 -17 144 l3 106 189 78 c103 44 190 81
193 84 3 3 -5 10 -18 15 -13 5 -196 77 -407 160 -211 83 -384 151 -385 151 -1
-1 -180 -71 -396 -156z m749 -384 l0 -100 -340 0 -340 0 0 100 0 100 340 0
340 0 0 -100z m6 -224 c35 -76 57 -189 51 -261 -11 -145 -140 -296 -354 -415
l-42 -23 -82 49 c-111 66 -227 176 -270 256 -33 60 -34 67 -34 168 0 111 17
186 55 248 l20 32 315 0 316 0 25 -54z"/>
<path d="M1716 2278 c-35 -49 -7 -108 50 -108 41 0 74 29 74 65 0 59 -91 90
-124 43z"/>
<path d="M1980 2280 c-43 -43 -10 -110 54 -110 25 0 39 7 50 22 35 49 7 108
-50 108 -21 0 -42 -8 -54 -20z"/>
<path d="M1772 1958 l3 -33 135 0 135 0 3 33 3 32 -141 0 -141 0 3 -32z"/>
<path d="M6090 2853 c-102 -8 -205 -16 -229 -19 l-43 -6 6 -81 c11 -128 12
-129 60 -127 72 3 68 9 61 -87 -3 -49 -10 -124 -15 -168 -5 -44 -14 -134 -20
-200 -6 -66 -15 -163 -20 -215 -5 -52 -14 -147 -20 -210 -6 -63 -15 -158 -20
-210 -5 -52 -14 -158 -21 -235 -15 -174 -30 -203 -49 -94 -5 30 -16 95 -25
144 -26 148 -65 375 -76 450 -6 39 -14 95 -19 125 -28 179 -61 424 -75 545 -9
77 -19 143 -23 146 -4 4 -56 3 -117 -3 -60 -5 -179 -12 -264 -16 l-154 -7 2
-85 c1 -47 6 -89 11 -94 5 -5 40 -12 77 -15 l68 -6 -1 -35 c-1 -19 -11 -118
-24 -220 -12 -102 -25 -219 -30 -260 -4 -41 -31 -284 -60 -540 -56 -488 -56
-490 -104 -490 -12 0 -32 -6 -45 -13 -20 -10 -24 -20 -24 -67 -1 -49 1 -55 19
-53 10 0 87 6 171 13 84 6 165 15 180 19 26 7 28 11 25 52 -5 87 -8 92 -52 86
-34 -4 -39 -2 -44 20 -4 13 -4 28 -1 33 3 5 10 73 16 152 11 164 24 326 39
513 14 166 26 322 39 505 14 199 22 260 31 260 11 0 18 -37 25 -135 3 -44 10
-109 15 -145 5 -36 14 -105 20 -155 11 -85 15 -114 40 -280 59 -395 169 -997
184 -1013 10 -10 340 18 347 29 3 6 9 47 13 92 3 45 22 262 41 482 37 419 49
551 65 750 5 66 14 170 20 230 5 61 15 173 21 250 7 77 15 150 20 161 6 18 22
24 88 34 l81 14 0 92 c0 65 -4 93 -12 96 -7 2 -96 -2 -198 -9z"/>
<path d="M6675 2864 c-11 -1 -66 -8 -123 -14 -94 -11 -103 -14 -108 -36 -3
-12 -3 -27 0 -33 10 -16 7 -1266 -4 -1371 -5 -52 -6 -98 -2 -102 11 -10 111
14 116 28 7 17 90 550 116 739 31 222 69 546 86 723 l7 72 -34 -1 c-19 -1 -43
-3 -54 -5z"/>
<path d="M2587 2507 c-22 -144 -41 -272 -44 -284 -5 -23 -4 -23 92 -23 l97 0
-6 48 c-3 26 -13 154 -23 285 l-17 237 -30 0 -31 0 -38 -263z"/>
<path d="M4168 2740 c-114 -19 -242 -114 -331 -244 -274 -403 -341 -1267 -127
-1641 42 -74 136 -158 207 -186 47 -19 77 -23 163 -24 98 0 109 2 174 33 200
94 354 379 415 762 31 199 37 339 21 530 -41 478 -166 720 -398 769 -58 12
-57 12 -124 1z m76 -124 c58 -24 87 -88 111 -241 17 -108 20 -601 5 -770 -38
-416 -63 -548 -132 -693 -43 -91 -77 -122 -137 -122 -76 0 -126 105 -150 315
-14 114 -14 470 -1 646 40 524 118 814 234 865 38 16 31 16 70 0z"/>
<path d="M1918 1143 c7 -3 16 -2 19 1 4 3 -2 6 -13 5 -11 0 -14 -3 -6 -6z"/>
<path d="M1963 1143 c9 -2 23 -2 30 0 6 3 -1 5 -18 5 -16 0 -22 -2 -12 -5z"/>
<path d="M6402 1080 c-24 -17 -53 -52 -69 -82 -25 -48 -28 -63 -28 -153 0 -85
3 -106 23 -142 28 -54 65 -78 117 -78 57 0 105 39 144 116 27 55 31 72 31 148
0 69 -5 96 -24 137 -13 28 -34 59 -47 68 -38 26 -100 21 -147 -14z"/>
</g>
</svg>
