<?xml version="1.0" standalone="no"?>
<!DOCTYPE svg PUBLIC "-//W3C//DTD SVG 20010904//EN"
 "http://www.w3.org/TR/2001/REC-SVG-20010904/DTD/svg10.dtd">
<svg version="1.0" xmlns="http://www.w3.org/2000/svg"
 width="1304.000000pt" height="630.000000pt" viewBox="0 0 1304.000000 630.000000"
 preserveAspectRatio="xMidYMid meet">

<g transform="translate(0.000000,630.000000) scale(0.100000,-0.100000)"
fill="#000000" stroke="none">
<path d="M5638 5839 c-210 -31 -371 -150 -403 -296 l-7 -33 -292 0 c-236 0
-296 -3 -312 -14 -18 -14 -19 -36 -24 -673 l-5 -658 -232 -3 c-219 -2 -232 -1
-235 16 -3 18 -5 18 -68 -3 l-65 -22 65 -19 c62 -19 65 -19 68 -2 3 17 20 18
231 18 208 0 229 2 244 18 15 17 17 81 19 668 l3 649 302 3 303 2 5 -27 c28
-130 143 -230 325 -284 71 -21 98 -22 513 -26 l437 -5 0 -289 c0 -278 -1 -289
-19 -289 -19 0 -19 -1 0 -62 10 -35 19 -66 19 -69 0 -4 -161 -9 -357 -12 -288
-4 -371 -8 -422 -21 -133 -34 -246 -119 -272 -204 -34 -114 61 -231 236 -289
l80 -27 388 -4 387 -4 0 -123 c0 -68 -3 -130 -6 -139 -6 -14 -79 -16 -725 -16
-706 0 -719 0 -739 -20 -16 -16 -20 -33 -20 -80 0 -47 -3 -60 -15 -60 -8 0
-15 -3 -15 -7 0 -16 34 -113 40 -113 6 0 40 97 40 113 0 4 -7 7 -15 7 -13 0
-15 12 -13 68 l3 67 721 5 c528 4 725 8 735 17 11 9 19 8 33 -3 17 -12 160
-14 931 -14 695 0 914 -3 923 -12 7 -7 12 -38 12 -69 0 -48 -3 -58 -18 -61
-18 -3 -18 -6 2 -66 l21 -63 22 65 c21 64 21 66 2 66 -17 0 -19 8 -19 64 0 56
-3 67 -22 80 -20 14 -125 16 -933 16 -695 0 -914 3 -923 12 -8 8 -12 54 -12
140 l0 128 343 0 c188 0 372 5 410 10 235 34 384 174 337 316 -18 52 -84 121
-150 154 -118 59 -139 62 -577 67 -222 3 -403 8 -403 12 0 3 9 34 19 69 19 61
19 62 0 62 -18 0 -19 11 -19 289 l0 289 438 5 c415 4 441 5 512 26 182 54 297
154 324 284 l6 27 438 -2 437 -3 5 -691 c4 -565 7 -694 19 -707 12 -15 51 -17
377 -17 345 0 363 -1 366 -18 3 -18 6 -18 68 3 l65 22 -55 18 c-30 10 -61 20
-67 23 -8 2 -13 -4 -13 -17 0 -21 -1 -21 -358 -21 -265 0 -361 3 -370 12 -9 9
-12 177 -12 695 0 670 0 683 -20 703 -19 19 -33 20 -449 20 l-429 0 -7 33
c-20 93 -101 185 -209 237 -142 67 -92 64 -1036 66 -470 1 -881 -2 -912 -7z
m1797 -24 c101 -22 207 -75 264 -134 63 -64 85 -121 79 -200 -10 -138 -147
-252 -358 -297 -96 -20 -1714 -20 -1810 0 -150 32 -257 95 -319 186 -43 64
-53 145 -26 216 37 96 155 182 307 223 70 19 109 20 933 20 721 1 871 -2 930
-14z m-82 -1420 c124 -26 235 -94 273 -166 23 -46 18 -120 -12 -165 -33 -49
-55 -67 -126 -104 -115 -60 -112 -60 -928 -60 -815 0 -823 1 -936 58 -209 107
-204 296 10 397 111 53 123 53 916 54 605 1 747 -2 803 -14z"/>
<path d="M6063 5598 c-16 -7 -23 -20 -23 -38 0 -27 8 -33 73 -54 9 -3 17 -12
17 -20 0 -21 -31 -25 -62 -7 -15 8 -31 11 -35 7 -13 -13 37 -46 68 -46 27 0
69 29 69 48 0 19 -27 41 -60 50 -42 10 -55 42 -18 42 13 0 29 -5 36 -12 8 -8
15 -9 22 -2 24 24 -50 51 -87 32z"/>
<path d="M6489 5578 c-3 -109 -3 -113 -24 -113 -16 0 -21 8 -23 38 -3 31 1 39
20 46 20 8 21 10 6 16 -9 3 -26 2 -37 -5 -16 -8 -21 -20 -21 -54 0 -54 19 -74
55 -58 15 7 25 8 25 2 0 -6 7 -10 15 -10 12 0 15 16 15 85 0 69 -3 85 -15 85
-10 0 -15 -11 -16 -32z"/>
<path d="M6696 5578 c-22 -30 -20 -91 2 -110 68 -61 164 3 132 88 -14 37 -26
44 -77 44 -32 0 -46 -5 -57 -22z m92 -10 c7 -7 12 -26 12 -43 0 -36 -15 -55
-45 -55 -30 0 -45 19 -45 55 0 36 15 55 45 55 12 0 26 -5 33 -12z"/>
<path d="M6860 5520 c0 -64 3 -80 15 -80 12 0 15 14 15 63 l1 62 35 -62 c24
-43 42 -63 55 -63 17 0 19 8 19 80 0 64 -3 80 -15 80 -12 0 -15 -13 -15 -57
l-1 -58 -32 57 c-24 44 -38 58 -54 58 -22 0 -23 -4 -23 -80z"/>
<path d="M6194 5577 c-11 -13 -5 -102 9 -125 8 -12 47 -17 47 -6 0 3 -7 12
-15 20 -8 9 -15 31 -15 50 0 24 5 34 15 34 8 0 15 5 15 10 0 6 -7 10 -15 10
-8 0 -15 5 -15 10 0 14 -13 12 -26 -3z"/>
<path d="M6270 5516 c0 -57 15 -80 46 -74 26 5 29 28 5 28 -18 0 -21 6 -21 50
0 38 -4 50 -15 50 -11 0 -15 -13 -15 -54z"/>
<path d="M6348 5523 c-5 -59 0 -83 18 -83 11 0 14 16 14 65 0 49 -3 65 -14 65
-9 0 -15 -15 -18 -47z"/>
<path d="M6542 5559 c49 -121 52 -139 22 -139 -8 0 -14 -4 -14 -10 0 -5 10
-10 23 -10 26 0 35 14 67 100 24 65 24 70 6 70 -7 0 -19 -20 -26 -46 -14 -49
-24 -48 -37 6 -6 21 -16 36 -28 38 -12 3 -16 0 -13 -9z"/>
<path d="M6430 4204 c0 -22 -2 -25 -15 -14 -23 19 -47 -6 -43 -44 3 -27 7 -31
36 -32 l32 -1 0 59 c0 32 -2 58 -5 58 -3 0 -5 -12 -5 -26z m-5 -63 c-9 -29
-39 -23 -43 8 -2 13 2 27 10 32 19 12 41 -14 33 -40z"/>
<path d="M6127 4207 c-8 -21 6 -37 39 -46 16 -4 29 -14 29 -22 0 -19 -42 -24
-62 -7 -14 11 -15 11 -11 -2 3 -10 18 -15 44 -15 32 0 40 4 42 22 2 16 -4 24
-32 33 -49 16 -50 45 -1 37 21 -3 33 -2 30 4 -9 14 -72 11 -78 -4z"/>
<path d="M6562 4208 c-17 -17 -15 -73 2 -87 8 -7 30 -11 48 -9 25 2 34 8 36
26 3 18 -1 22 -20 21 -18 -1 -19 -2 -5 -6 25 -7 16 -27 -15 -31 -30 -4 -51 19
-46 49 5 32 33 47 59 31 18 -11 20 -11 17 0 -6 17 -60 22 -76 6z"/>
<path d="M6238 4197 c-11 -27 -10 -75 3 -82 14 -10 15 -7 9 50 -3 35 -7 45
-12 32z"/>
<path d="M6745 4186 c-20 -15 -17 -67 5 -74 12 -4 13 -2 3 9 -25 26 -7 74 23
62 17 -6 18 -60 2 -66 -10 -4 -10 -6 -1 -6 17 -1 33 32 27 56 -7 26 -37 35
-59 19z"/>
<path d="M6945 4190 c-4 -6 -10 -8 -15 -5 -5 3 -10 -16 -12 -42 l-3 -48 -207
-3 c-141 -2 -208 1 -208 8 0 6 7 27 15 47 8 20 13 38 10 41 -2 3 -8 -6 -13
-19 -5 -13 -12 -31 -15 -39 -3 -8 -6 -10 -6 -3 -2 21 -21 66 -27 60 -3 -2 2
-22 10 -42 9 -20 13 -41 10 -46 -3 -5 -91 -9 -196 -9 -105 0 -189 -2 -186 -5
4 -5 760 -8 868 -4 l45 2 -39 6 c-22 3 -41 12 -44 20 -3 9 0 11 9 6 11 -6 12
-5 2 6 -17 17 -16 44 1 58 22 18 41 -21 25 -50 -9 -17 -8 -20 3 -17 7 3 14 17
16 32 5 39 -27 73 -43 46z"/>
<path d="M6283 4155 c2 -38 4 -40 35 -41 31 -1 32 0 31 40 -1 42 -3 41 -13 -7
-9 -40 -39 -32 -48 13 l-6 35 1 -40z"/>
<path d="M6681 4145 c2 -33 3 -35 6 -10 2 17 11 35 20 42 13 10 13 12 -6 10
-18 -1 -21 -7 -20 -42z"/>
<path d="M6832 4153 c-2 -39 0 -43 21 -42 16 1 17 3 5 6 -11 3 -18 17 -21 41
l-4 37 -1 -42z"/>
<path d="M6883 4150 c0 -25 2 -35 4 -22 2 12 2 32 0 45 -2 12 -4 2 -4 -23z"/>
<path d="M2150 4420 c-92 -11 -146 -27 -213 -62 -105 -56 -168 -152 -153 -233
16 -85 111 -169 240 -212 l81 -27 388 -4 387 -4 0 -127 c0 -85 -4 -131 -12
-139 -9 -9 -248 -12 -1013 -12 -889 0 -1003 -2 -1023 -16 -19 -13 -22 -24 -22
-79 0 -54 -3 -64 -18 -67 -18 -3 -18 -6 2 -66 l21 -63 22 65 c21 64 21 66 2
66 -17 0 -19 8 -19 58 0 32 5 63 12 70 9 9 172 12 673 12 l660 0 -3 -70 c-3
-60 -6 -70 -22 -70 -17 0 -17 -3 3 -66 l22 -65 21 63 c20 60 20 63 2 66 -15 3
-18 13 -18 61 0 36 5 63 13 70 11 8 354 18 707 19 240 0 596 -11 607 -20 8 -6
13 -33 13 -69 0 -51 -2 -59 -19 -59 -19 0 -19 -2 2 -66 l22 -65 21 63 c20 60
20 63 2 66 -15 3 -18 13 -18 67 0 98 10 95 -326 95 -228 0 -284 3 -293 14 -8
9 -11 55 -9 137 l3 124 385 6 c413 6 434 9 544 63 217 107 220 307 5 416 -127
65 -102 63 -894 66 -396 1 -749 -2 -785 -6z m1533 -25 c124 -26 235 -94 273
-166 22 -44 18 -116 -10 -163 -27 -46 -58 -72 -134 -110 -109 -55 -114 -56
-918 -56 -493 0 -760 4 -799 11 -125 23 -249 101 -281 176 -56 130 61 262 271
308 92 20 1503 20 1598 0z"/>
<path d="M2511 4163 c1 -32 4 -46 6 -30 6 35 36 36 51 2 6 -14 16 -25 22 -25
7 0 5 9 -4 22 -14 20 -14 24 1 40 22 25 1 48 -43 48 l-34 0 1 -57z m67 25 c3
-14 -3 -18 -27 -18 -25 0 -31 4 -31 21 0 16 5 20 27 17 17 -2 29 -10 31 -20z"/>
<path d="M3052 4208 c-7 -7 -12 -26 -12 -43 0 -38 16 -55 50 -55 39 0 54 15
54 55 0 21 -6 40 -14 46 -21 13 -64 11 -78 -3z m67 -12 c7 -8 11 -27 9 -43 -6
-50 -78 -40 -78 11 0 41 45 62 69 32z"/>
<path d="M3172 4163 l1 -58 6 50 6 50 28 -47 c16 -27 33 -48 38 -48 5 0 8 26
7 58 l-1 57 -6 -48 -6 -47 -28 45 c-16 25 -33 45 -38 45 -5 0 -8 -26 -7 -57z"/>
<path d="M2998 4204 c-12 -11 -9 -82 3 -89 14 -10 15 -7 9 48 -3 27 -8 45 -12
41z"/>
<path d="M2636 4187 c-21 -15 -19 -68 2 -75 11 -3 12 0 3 17 -11 19 -9 21 19
21 34 0 41 23 11 39 -13 7 -23 6 -35 -2z m44 -17 c0 -5 -12 -10 -26 -10 -14 0
-23 4 -19 10 3 6 15 10 26 10 10 0 19 -4 19 -10z"/>
<path d="M2733 4192 c-20 -3 -23 -9 -23 -53 l0 -49 -117 -2 -118 -2 125 -5
c69 -3 251 -4 405 -1 l280 6 -277 2 c-249 2 -310 8 -265 25 10 4 10 6 0 6 -19
1 -16 58 2 65 19 7 29 -15 23 -49 -6 -30 8 -34 17 -5 8 25 -2 57 -18 62 -7 2
-22 2 -34 0z"/>
<path d="M2829 4193 c-33 -8 -29 -84 4 -82 9 0 9 2 0 6 -26 10 -13 33 17 33
17 0 30 4 30 9 0 9 -29 43 -33 40 -1 -1 -9 -3 -18 -6z m31 -24 c0 -5 -9 -9
-20 -9 -22 0 -27 16 -7 23 15 5 27 -1 27 -14z"/>
<path d="M2914 4185 c-11 -8 -14 -15 -7 -15 6 0 15 5 18 10 4 6 11 8 16 5 16
-11 10 -24 -13 -27 -15 -2 -24 -11 -26 -25 -2 -13 1 -23 6 -23 5 0 9 8 8 17
-2 25 30 28 37 3 9 -34 23 -22 19 15 -5 43 -31 61 -58 40z"/>
<path d="M2670 4120 c-9 -6 -10 -10 -3 -10 6 0 15 5 18 10 8 12 4 12 -15 0z"/>
<path d="M2855 4120 c-3 -5 -2 -10 4 -10 5 0 13 5 16 10 3 6 2 10 -4 10 -5 0
-13 -4 -16 -10z"/>
<path d="M9920 4339 c-171 -25 -315 -126 -336 -234 -15 -82 48 -176 154 -233
111 -59 149 -64 565 -69 l377 -5 0 -178 c0 -166 -1 -179 -18 -182 -18 -3 -18
-6 3 -68 l22 -65 21 65 c19 63 19 65 1 68 -16 3 -19 12 -19 62 l0 60 26 -10
c15 -6 305 -10 754 -10 806 0 740 6 740 -65 0 -25 -5 -34 -18 -37 -18 -3 -18
-6 2 -66 l21 -63 22 65 c21 64 21 66 2 66 -16 0 -19 7 -19 43 0 83 58 77 -771
77 -558 0 -738 3 -747 12 -8 8 -12 49 -12 119 l0 107 378 5 c411 5 448 9 560
66 109 55 171 145 159 232 -15 112 -151 208 -338 238 -76 13 -1445 13 -1529 0z
m1578 -24 c65 -15 145 -52 195 -89 68 -49 98 -157 63 -225 -22 -41 -92 -100
-152 -128 -116 -53 -133 -54 -953 -51 l-756 3 -69 25 c-213 75 -287 223 -173
347 56 61 138 101 262 127 11 2 358 4 770 5 629 1 760 -2 813 -14z"/>
<path d="M11100 4130 c0 -12 -6 -20 -12 -19 -27 3 -36 -2 -41 -21 -10 -40 3
-60 39 -60 l34 0 0 60 c0 33 -4 60 -10 60 -5 0 -10 -9 -10 -20z m0 -60 c0 -23
-4 -30 -20 -30 -16 0 -20 7 -20 30 0 23 4 30 20 30 16 0 20 -7 20 -30z"/>
<path d="M10267 4127 c-8 -21 6 -37 39 -46 16 -4 29 -14 29 -22 0 -19 -42 -24
-62 -7 -14 11 -15 11 -11 -2 3 -10 18 -15 44 -15 32 0 40 4 42 22 2 16 -4 24
-32 33 -49 16 -50 45 -1 37 21 -3 33 -2 30 4 -9 14 -72 11 -78 -4z"/>
<path d="M10700 4085 l0 -55 34 0 c40 0 64 23 47 44 -6 7 -8 21 -5 31 8 21
-11 35 -48 35 -27 0 -28 -2 -28 -55z m58 28 c-2 -10 -13 -19 -26 -21 -17 -3
-22 2 -22 17 0 16 6 21 26 21 19 0 25 -5 22 -17z m12 -53 c0 -16 -7 -20 -30
-20 -23 0 -30 4 -30 20 0 16 7 20 30 20 23 0 30 -4 30 -20z"/>
<path d="M10473 4112 c-12 -8 -18 -31 -15 -64 2 -13 11 -18 31 -18 41 0 56 44
25 74 -17 18 -24 19 -41 8z m37 -42 c0 -23 -4 -30 -20 -30 -16 0 -20 7 -20 30
0 23 4 30 20 30 16 0 20 -7 20 -30z"/>
<path d="M10616 4104 c-31 -30 -16 -74 25 -74 16 0 29 4 29 9 0 4 -11 6 -25 3
-18 -3 -25 0 -25 12 0 11 9 16 30 16 24 0 28 3 23 18 -13 33 -34 40 -57 16z
m44 -15 c0 -5 -12 -9 -27 -9 -27 1 -27 1 -9 15 19 14 36 12 36 -6z"/>
<path d="M10829 4113 c-33 -8 -29 -84 4 -82 9 0 9 2 0 6 -18 7 -16 60 2 67 22
8 39 -29 24 -55 -9 -17 -8 -20 3 -17 7 3 14 19 16 36 3 33 -18 52 -49 45z"/>
<path d="M10914 4105 c-11 -8 -14 -15 -7 -15 6 0 15 5 18 10 4 6 11 8 16 5 16
-11 10 -24 -13 -27 -15 -2 -24 -11 -26 -25 -2 -13 1 -23 6 -23 5 0 9 8 8 17 0
10 7 19 17 21 20 4 24 -24 5 -31 -7 -2 -2 -4 12 -4 23 0 25 3 22 33 -5 42 -31
59 -58 39z"/>
<path d="M10374 4095 c-12 -30 5 -65 31 -65 13 0 27 5 30 10 4 7 -2 9 -18 5
-20 -5 -27 -2 -32 15 -4 12 -1 27 5 35 9 11 9 15 1 15 -6 0 -14 -7 -17 -15z"/>
<path d="M10415 4100 c3 -5 11 -10 16 -10 6 0 7 5 4 10 -3 6 -11 10 -16 10 -6
0 -7 -4 -4 -10z"/>
<path d="M10551 4065 l1 -40 8 34 c4 18 14 37 21 42 10 6 7 8 -9 6 -19 -1 -22
-7 -21 -42z"/>
<path d="M10990 4070 c0 -22 5 -40 10 -40 6 0 10 15 10 34 0 19 6 37 13 39 6
3 2 6 -10 6 -20 1 -23 -4 -23 -39z"/>
<path d="M10463 4003 c125 -2 329 -2 455 0 125 1 22 2 -228 2 -250 0 -353 -1
-227 -2z"/>
<path d="M445 3289 c-48 -14 -102 -65 -132 -126 -22 -47 -28 -71 -28 -133 0
-114 43 -200 124 -248 l46 -27 360 0 360 0 46 27 c81 48 124 134 124 248 0 62
-6 86 -28 133 -32 63 -84 112 -137 127 -43 12 -693 12 -735 -1z m766 -29 c45
-23 93 -91 110 -155 26 -93 -4 -215 -67 -279 -55 -55 -64 -56 -439 -56 -375 0
-384 1 -439 56 -44 45 -69 102 -74 174 -5 78 7 129 47 192 56 87 54 87 464 88
341 0 360 -1 398 -20z"/>
<path d="M590 3035 l0 -55 43 2 42 1 -37 4 c-29 3 -38 9 -38 23 0 14 9 20 33
23 l32 4 -32 1 c-25 2 -33 7 -33 21 0 15 8 21 38 24 l37 4 -42 1 -43 2 0 -55z"/>
<path d="M704 3055 c-10 -8 -14 -15 -7 -15 6 0 15 5 18 10 4 6 11 8 16 5 16
-11 10 -24 -13 -27 -15 -2 -23 -10 -23 -23 0 -16 7 -20 35 -21 35 -2 36 -2 32
35 -6 50 -24 62 -58 36z m44 -47 c-5 -15 -48 -24 -48 -10 0 14 12 22 33 22 10
0 17 -5 15 -12z"/>
<path d="M916 3054 c-31 -30 -16 -74 25 -74 16 0 29 4 29 9 0 4 -11 6 -25 3
-18 -3 -25 0 -25 12 0 11 9 16 30 16 17 0 30 4 30 9 0 12 -29 41 -40 41 -5 0
-16 -7 -24 -16z m44 -15 c0 -5 -9 -9 -20 -9 -22 0 -27 16 -7 23 15 5 27 -1 27
-14z"/>
<path d="M785 3050 c-8 -13 3 -30 19 -30 19 0 40 -27 26 -33 -6 -3 -5 -4 2 -3
25 5 20 35 -7 42 -17 4 -24 11 -21 20 6 16 -10 19 -19 4z"/>
<path d="M825 3050 c3 -5 11 -10 16 -10 6 0 7 5 4 10 -3 6 -11 10 -16 10 -6 0
-7 -4 -4 -10z"/>
<path d="M873 3020 c0 -25 2 -35 4 -22 2 12 2 32 0 45 -2 12 -4 2 -4 -23z"/>
<path d="M1000 3040 c0 -11 6 -20 13 -20 6 0 19 -5 27 -10 13 -9 13 -11 0 -20
-13 -8 -12 -10 3 -10 28 0 21 39 -9 46 -16 4 -23 12 -20 20 3 8 1 14 -4 14 -6
0 -10 -9 -10 -20z"/>
<path d="M1030 3056 c0 -2 7 -6 15 -10 8 -3 15 -1 15 4 0 6 -7 10 -15 10 -8 0
-15 -2 -15 -4z"/>
<path d="M785 2990 c3 -5 11 -10 16 -10 6 0 7 5 4 10 -3 6 -11 10 -16 10 -6 0
-7 -4 -4 -10z"/>
<path d="M995 2990 c3 -5 11 -10 16 -10 6 0 7 5 4 10 -3 6 -11 10 -16 10 -6 0
-7 -4 -4 -10z"/>
<path d="M1795 3289 c-48 -14 -102 -65 -132 -126 -22 -47 -28 -71 -28 -133 0
-114 43 -200 124 -248 l46 -27 360 0 360 0 46 27 c81 48 124 134 124 248 0 62
-6 86 -28 133 -32 63 -84 112 -137 127 -43 12 -693 12 -735 -1z m766 -29 c45
-23 93 -91 110 -155 26 -93 -4 -215 -67 -279 -55 -55 -64 -56 -439 -56 -375 0
-384 1 -439 56 -44 45 -69 102 -74 174 -5 78 7 129 47 192 56 87 54 87 464 88
341 0 360 -1 398 -20z"/>
<path d="M2130 3074 c0 -22 -2 -25 -15 -14 -23 19 -47 -6 -43 -44 3 -27 7 -31
36 -32 l32 -1 0 59 c0 32 -2 58 -5 58 -3 0 -5 -12 -5 -26z m-5 -63 c-3 -11
-12 -21 -20 -21 -19 0 -29 38 -14 56 11 13 14 13 27 1 9 -9 11 -23 7 -36z"/>
<path d="M1852 3033 l1 -58 6 45 6 45 14 -42 c8 -24 18 -43 22 -43 5 0 14 19
21 43 l13 42 6 -45 6 -45 1 58 c2 66 -10 74 -27 17 -6 -22 -15 -40 -20 -40 -4
0 -14 18 -21 40 -19 57 -30 50 -28 -17z"/>
<path d="M1996 3057 c-21 -16 -18 -68 4 -75 12 -4 13 -2 3 9 -20 21 -15 29 17
29 34 0 41 23 11 39 -13 7 -23 6 -35 -2z m44 -18 c0 -5 -12 -9 -26 -9 -22 0
-24 2 -14 14 12 15 40 11 40 -5z"/>
<path d="M2376 3063 c-4 -4 -22 -6 -41 -5 l-35 3 2 -43 1 -43 4 38 c6 50 35
48 44 -3 l6 -35 2 38 c1 31 4 38 19 35 11 -2 19 -16 23 -38 l6 -35 2 36 c1 35
-18 66 -33 52z"/>
<path d="M2173 3020 c0 -25 2 -35 4 -22 2 12 2 32 0 45 -2 12 -4 2 -4 -23z"/>
<path d="M2203 3025 c2 -38 4 -40 35 -41 31 -1 32 0 31 40 -1 42 -3 41 -13 -6
-4 -16 -13 -28 -21 -28 -8 0 -17 12 -21 28 -10 46 -13 49 -11 7z"/>
<path d="M2437 3053 c-13 -12 -7 -24 19 -33 18 -7 24 -15 20 -26 -4 -10 -1
-14 6 -12 23 8 14 32 -16 47 -22 10 -25 15 -15 22 8 5 9 9 3 9 -6 0 -14 -3
-17 -7z"/>
<path d="M2475 3050 c3 -5 8 -10 11 -10 2 0 4 5 4 10 0 6 -5 10 -11 10 -5 0
-7 -4 -4 -10z"/>
<path d="M2025 2990 c-3 -5 -2 -10 4 -10 5 0 13 5 16 10 3 6 2 10 -4 10 -5 0
-13 -4 -16 -10z"/>
<path d="M2437 2989 c7 -7 15 -10 18 -7 3 3 -2 9 -12 12 -14 6 -15 5 -6 -5z"/>
<path d="M3145 3289 c-48 -14 -102 -65 -132 -126 -22 -47 -28 -71 -28 -133 0
-114 43 -200 124 -248 l46 -27 360 0 360 0 46 27 c81 48 124 134 124 248 0 62
-6 86 -28 133 -32 63 -84 112 -137 127 -43 12 -693 12 -735 -1z m766 -29 c45
-23 93 -91 110 -155 26 -93 -4 -215 -67 -279 -55 -55 -64 -56 -439 -56 -375 0
-384 1 -439 56 -44 45 -69 102 -74 174 -5 78 7 129 47 192 56 87 54 87 464 88
341 0 360 -1 398 -20z"/>
<path d="M3640 3075 c0 -22 -3 -24 -18 -16 -27 15 -44 -2 -40 -40 3 -31 6 -34
36 -35 l32 -1 0 59 c0 32 -2 58 -5 58 -3 0 -5 -11 -5 -25z m-7 -37 c7 -23 -5
-48 -24 -48 -14 0 -19 7 -19 30 0 23 5 30 19 30 11 0 21 -6 24 -12z"/>
<path d="M3323 3035 c0 -33 2 -48 4 -32 4 22 9 27 34 27 24 0 29 -4 29 -25 0
-14 5 -25 10 -25 6 0 10 25 10 55 0 30 -4 55 -10 55 -5 0 -10 -11 -10 -25 0
-21 -5 -25 -29 -25 -25 0 -30 5 -34 28 -2 15 -4 0 -4 -33z"/>
<path d="M3444 3055 c-10 -8 -14 -15 -7 -15 6 0 15 5 18 10 4 6 11 8 16 5 16
-11 10 -24 -13 -27 -15 -2 -23 -10 -23 -23 0 -16 7 -20 36 -21 34 -2 35 -1 31
30 -5 31 -18 56 -31 56 -4 0 -16 -7 -27 -15z m40 -50 c-6 -16 -44 -21 -44 -7
0 14 12 22 31 22 12 0 16 -5 13 -15z"/>
<path d="M3521 3038 c0 -13 4 -32 9 -43 7 -16 9 -13 9 17 1 20 7 39 14 41 6 3
2 6 -10 6 -18 1 -23 -4 -22 -21z"/>
<path d="M3670 3045 c0 -9 12 -20 26 -25 18 -7 24 -15 20 -26 -4 -10 -1 -14 6
-12 23 8 14 32 -16 47 -22 10 -25 15 -15 22 11 7 10 9 -3 9 -10 0 -18 -7 -18
-15z"/>
<path d="M3715 3050 c3 -5 8 -10 11 -10 2 0 4 5 4 10 0 6 -5 10 -11 10 -5 0
-7 -4 -4 -10z"/>
<path d="M3670 2990 c0 -6 7 -10 15 -10 8 0 15 2 15 4 0 2 -7 6 -15 10 -8 3
-15 1 -15 -4z"/>
<path d="M4557 3289 c-98 -23 -185 -101 -211 -190 -20 -66 -20 -82 0 -149 12
-39 29 -66 67 -105 82 -81 107 -87 400 -93 l248 -4 -3 -117 -3 -116 -583 -5
c-563 -5 -584 -6 -598 -24 -8 -11 -14 -37 -14 -58 0 -27 -4 -38 -15 -38 -8 0
-15 -3 -15 -7 0 -16 34 -113 40 -113 6 0 40 97 40 113 0 4 -7 7 -16 7 -12 0
-14 10 -12 48 l3 47 585 6 c322 4 592 7 600 7 8 0 159 -3 335 -6 l320 -7 3
-47 c2 -38 0 -48 -12 -48 -20 0 -19 -12 4 -75 11 -32 20 -45 24 -35 9 24 36
102 36 106 0 2 -9 4 -20 4 -17 0 -20 7 -20 49 0 29 -5 53 -12 58 -7 4 -155 10
-328 13 l-315 5 -3 116 -3 117 248 5 c159 3 261 9 283 17 137 47 220 184 190
311 -23 96 -119 186 -220 208 -62 13 -967 13 -1023 0z m1043 -20 c104 -31 190
-142 190 -245 0 -105 -81 -206 -192 -239 -76 -22 -980 -22 -1056 0 -144 43
-221 180 -180 319 16 55 99 138 158 159 39 13 116 16 544 16 344 1 510 -3 536
-10z"/>
<path d="M4836 3074 c-19 -19 -21 -54 -3 -78 16 -22 78 -19 85 4 4 13 3 13
-11 2 -38 -32 -84 7 -66 56 9 24 54 31 62 10 2 -7 8 -9 13 -5 5 4 2 12 -6 17
-23 15 -57 12 -74 -6z"/>
<path d="M4955 3056 c-20 -15 -17 -67 5 -74 12 -4 13 -2 3 9 -25 26 -7 74 23
62 16 -6 19 -59 4 -66 -6 -3 -5 -4 2 -3 7 1 14 18 16 38 2 28 -1 36 -17 41
-11 3 -27 0 -36 -7z"/>
<path d="M5276 3054 c-17 -16 -20 -33 -10 -58 7 -18 59 -22 69 -6 4 6 -5 7
-23 4 -21 -4 -31 -2 -35 10 -5 13 1 16 28 16 19 0 35 4 35 9 0 12 -29 41 -40
41 -5 0 -16 -7 -24 -16z m44 -15 c0 -5 -9 -9 -20 -9 -22 0 -27 16 -7 23 15 5
27 -1 27 -14z"/>
<path d="M5030 3033 c0 -40 12 -53 43 -51 25 2 27 6 26 43 l-2 40 -6 -35 c-9
-50 -41 -55 -41 -6 0 20 -4 36 -10 36 -5 0 -10 -12 -10 -27z"/>
<path d="M5131 3015 c2 -33 3 -35 6 -10 2 17 11 35 20 42 13 10 13 12 -6 10
-18 -1 -21 -7 -20 -42z"/>
<path d="M5180 3045 c0 -9 12 -20 26 -25 18 -7 24 -15 20 -26 -4 -10 -1 -14 6
-12 23 8 14 32 -16 47 -22 10 -25 15 -15 22 11 7 10 9 -3 9 -10 0 -18 -7 -18
-15z"/>
<path d="M5225 3050 c3 -5 8 -10 11 -10 2 0 4 5 4 10 0 6 -5 10 -11 10 -5 0
-7 -4 -4 -10z"/>
<path d="M5180 2990 c0 -6 7 -10 15 -10 8 0 15 2 15 4 0 2 -7 6 -15 10 -8 3
-15 1 -15 -4z"/>
<path d="M7914 3283 c-73 -21 -142 -77 -177 -143 -26 -49 -28 -62 -25 -125 5
-79 23 -119 73 -170 80 -80 152 -95 448 -95 l207 0 0 -254 c0 -240 -1 -255
-18 -258 -18 -3 -18 -6 2 -66 l21 -63 22 65 c21 64 21 66 2 66 -17 0 -19 8
-19 93 l0 92 667 -3 c467 -2 670 -6 680 -13 9 -8 13 -37 13 -90 0 -68 -2 -78
-18 -81 -18 -3 -18 -6 2 -66 l21 -63 22 65 c21 64 21 66 2 66 -17 0 -19 8 -19
83 0 51 -5 88 -12 95 -9 9 -171 12 -666 12 -431 0 -660 4 -673 10 -17 10 -19
23 -19 160 l0 150 208 0 c296 0 368 16 446 96 55 56 71 98 71 185 0 67 -4 81
-30 125 -35 57 -105 107 -178 129 -75 22 -977 21 -1053 -2z m1101 -29 c95 -52
148 -133 148 -229 0 -75 -25 -127 -87 -182 -82 -72 -87 -73 -630 -73 -545 0
-550 1 -630 71 -155 137 -108 353 93 425 28 11 147 13 551 11 505 -2 516 -2
555 -23z"/>
<path d="M8330 3074 c0 -22 -2 -25 -15 -14 -23 19 -47 -6 -43 -44 3 -27 7 -31
36 -32 l32 -1 0 59 c0 32 -2 58 -5 58 -3 0 -5 -12 -5 -26z m-5 -63 c-9 -29
-39 -23 -43 8 -2 13 2 27 10 32 19 12 41 -14 33 -40z"/>
<path d="M8027 3077 c-8 -21 6 -37 39 -46 16 -4 29 -14 29 -22 0 -19 -42 -24
-62 -7 -14 11 -15 11 -11 -2 3 -10 18 -15 44 -15 32 0 40 4 42 22 2 16 -4 24
-32 33 -49 16 -50 45 -1 37 21 -3 33 -2 30 4 -9 14 -72 11 -78 -4z"/>
<path d="M8462 3078 c-7 -7 -12 -26 -12 -43 0 -17 5 -36 12 -43 17 -17 63 -15
78 3 9 10 9 15 1 15 -6 0 -11 -4 -11 -10 0 -15 -46 -12 -60 4 -29 36 11 92 50
68 27 -16 35 -15 20 3 -15 18 -61 20 -78 3z"/>
<path d="M8573 3035 c0 -33 2 -48 4 -32 4 23 9 27 38 27 29 0 34 -4 38 -27 2
-16 4 -1 4 32 0 33 -2 48 -4 33 -4 -24 -9 -28 -38 -28 -29 0 -34 4 -38 28 -2
15 -4 0 -4 -33z"/>
<path d="M8701 3038 c-12 -28 -19 -53 -16 -56 2 -3 7 3 11 12 8 21 53 21 70
-1 7 -10 14 -13 14 -6 0 19 -39 103 -48 103 -5 0 -19 -23 -31 -52z m48 -5 c1
-7 -8 -13 -19 -13 -23 0 -24 1 -8 35 11 24 13 25 19 8 4 -10 8 -24 8 -30z"/>
<path d="M8797 3083 c19 -4 23 -12 26 -56 l3 -52 2 52 c2 45 5 52 25 56 12 2
0 4 -28 4 -27 0 -40 -2 -28 -4z"/>
<path d="M8138 3067 c-11 -27 -10 -75 3 -82 14 -10 15 -7 9 50 -3 35 -7 45
-12 32z"/>
<path d="M8183 3025 c2 -38 4 -40 35 -41 31 -1 32 0 31 40 -1 42 -3 41 -13 -7
-9 -40 -39 -32 -48 13 l-6 35 1 -40z"/>
<path d="M8360 3055 c0 -3 7 -22 15 -42 14 -33 14 -38 -1 -55 -10 -10 -12 -18
-7 -18 6 0 15 6 20 13 14 18 43 100 38 105 -4 4 -13 -14 -27 -58 -3 -9 -8 -2
-12 17 -6 28 -26 57 -26 38z"/>
<path d="M10125 3286 c-222 -56 -307 -279 -162 -429 101 -103 144 -109 774
-105 488 3 499 4 554 26 157 63 228 213 165 347 -30 64 -76 107 -151 142 l-60
28 -535 2 c-402 1 -547 -1 -585 -11z m1142 -21 c66 -20 127 -65 162 -121 79
-124 25 -271 -128 -343 l-56 -26 -560 0 -560 0 -55 26 c-104 49 -160 128 -160
226 1 106 75 198 189 236 68 23 1092 25 1168 2z"/>
<path d="M10680 3079 c0 -15 -5 -19 -15 -15 -16 6 -45 -18 -45 -39 0 -28 13
-45 34 -44 16 1 17 2 4 6 -12 3 -18 14 -18 33 0 55 36 46 43 -10 2 -22 4 -12
5 28 1 34 0 62 -3 62 -3 0 -5 -9 -5 -21z"/>
<path d="M10081 3033 c1 -32 4 -48 6 -36 3 16 13 23 36 26 l32 4 -32 1 c-28 2
-33 6 -33 26 0 20 6 25 33 29 31 4 31 4 -5 5 l-38 2 1 -57z"/>
<path d="M10384 3075 c-8 -20 12 -43 39 -47 12 -2 23 -11 25 -20 3 -14 -3 -18
-26 -18 -17 0 -33 5 -35 10 -3 6 -4 5 -3 -2 3 -17 54 -22 72 -7 22 18 17 27
-22 46 -42 20 -42 39 -2 37 16 -1 25 2 22 7 -9 15 -64 10 -70 -6z"/>
<path d="M10812 3078 c-17 -17 -15 -64 4 -82 28 -28 94 -18 94 15 0 14 -7 19
-27 18 -17 -1 -21 -3 -10 -6 30 -8 20 -33 -13 -33 -34 0 -53 30 -40 65 8 24
45 32 66 15 8 -8 14 -8 14 -2 0 22 -68 30 -88 10z"/>
<path d="M10492 3033 c-2 -45 1 -53 16 -53 11 0 13 3 5 8 -6 4 -13 28 -16 52
l-4 45 -1 -52z"/>
<path d="M10185 3056 c-20 -15 -17 -67 5 -74 12 -4 13 -2 3 9 -25 26 -7 74 23
62 17 -6 18 -60 2 -66 -10 -4 -10 -6 -1 -6 17 -1 33 32 27 56 -7 26 -37 35
-59 19z"/>
<path d="M11009 3063 c-19 -5 -29 -34 -22 -63 7 -25 58 -28 67 -4 16 43 -6 76
-45 67z m31 -44 c0 -22 -5 -29 -20 -29 -15 0 -20 7 -20 29 0 28 16 44 33 34 4
-2 7 -17 7 -34z"/>
<path d="M11200 3060 c-8 -5 -18 -6 -22 -4 -4 3 -7 -23 -7 -58 1 -35 4 -51 6
-37 3 22 8 25 33 21 29 -4 30 -3 30 36 0 41 -15 57 -40 42z m30 -40 c0 -23 -4
-30 -20 -30 -16 0 -20 7 -20 30 0 23 4 30 20 30 16 0 20 -7 20 -30z"/>
<path d="M10271 3018 c2 -34 3 -37 6 -13 2 17 12 36 21 43 14 11 13 12 -6 12
-19 0 -22 -5 -21 -42z"/>
<path d="M10530 3033 c0 -40 12 -53 43 -51 25 2 27 6 26 43 l-2 40 -6 -35 c-9
-50 -41 -55 -41 -6 0 20 -4 36 -10 36 -5 0 -10 -12 -10 -27z"/>
<path d="M10728 3014 c16 -44 16 -46 -2 -60 -11 -8 -15 -14 -9 -14 6 0 15 6
21 13 18 21 52 107 43 107 -5 0 -15 -15 -21 -32 l-13 -33 -10 33 c-5 17 -14
32 -18 32 -4 0 0 -21 9 -46z"/>
<path d="M10930 3015 c0 -29 3 -36 10 -25 5 8 10 25 10 37 0 12 6 23 13 26 6
3 2 4 -10 4 -20 -1 -23 -7 -23 -42z"/>
<path d="M11083 3025 c2 -38 4 -40 35 -41 31 -1 32 0 31 40 -1 42 -3 41 -13
-7 -9 -40 -39 -32 -48 13 l-6 35 1 -40z"/>
<path d="M11267 3053 c-13 -12 -7 -24 19 -33 18 -7 24 -15 20 -26 -4 -10 -1
-14 6 -12 25 9 20 37 -7 44 -17 4 -24 11 -21 20 6 14 -6 19 -17 7z"/>
<path d="M11305 3050 c3 -5 11 -10 16 -10 6 0 7 5 4 10 -3 6 -11 10 -16 10 -6
0 -7 -4 -4 -10z"/>
<path d="M10328 3023 c6 -2 18 -2 25 0 6 3 1 5 -13 5 -14 0 -19 -2 -12 -5z"/>
<path d="M11267 2989 c7 -7 15 -10 18 -7 3 3 -2 9 -12 12 -14 6 -15 5 -6 -5z"/>
<path d="M11845 3289 c-48 -14 -102 -65 -132 -126 -22 -47 -28 -71 -28 -133 0
-114 43 -200 124 -248 l46 -27 360 0 360 0 46 27 c81 48 124 134 124 248 0 62
-6 86 -28 133 -32 63 -84 112 -137 127 -43 12 -693 12 -735 -1z m766 -29 c45
-23 93 -91 110 -155 26 -93 -4 -215 -67 -279 -55 -55 -64 -56 -439 -56 -375 0
-384 1 -439 56 -44 45 -69 102 -74 174 -5 78 7 129 47 192 56 87 54 87 464 88
341 0 360 -1 398 -20z"/>
<path d="M11871 3033 c1 -32 4 -48 6 -36 3 16 13 23 36 26 l32 4 -32 1 c-28 2
-33 6 -33 26 0 20 6 25 33 29 31 4 31 4 -5 5 l-38 2 1 -57z"/>
<path d="M12174 3040 c1 -55 1 -55 35 -58 42 -4 51 9 49 68 -1 31 -2 36 -5 15
-8 -66 -13 -75 -38 -75 -25 0 -30 8 -39 75 -2 17 -3 5 -2 -25z"/>
<path d="M11975 3056 c-20 -15 -17 -67 5 -74 12 -4 13 -2 3 9 -25 26 -7 74 23
62 17 -6 18 -60 2 -66 -10 -4 -10 -6 -1 -6 17 -1 33 32 27 56 -7 26 -37 35
-59 19z"/>
<path d="M12386 3057 c-20 -15 -19 -69 2 -73 7 -1 8 0 2 3 -22 11 -9 33 20 33
34 0 41 23 11 39 -13 7 -23 6 -35 -2z m25 -25 c-28 -4 -40 6 -21 18 9 6 20 4
29 -3 12 -10 11 -13 -8 -15z"/>
<path d="M12061 3018 c2 -34 3 -37 6 -13 2 17 12 36 21 43 14 11 13 12 -6 12
-19 0 -22 -5 -21 -42z"/>
<path d="M12285 3050 c-8 -13 3 -30 19 -30 21 0 40 -27 24 -33 -8 -4 -7 -6 5
-6 28 -2 21 38 -9 45 -16 4 -23 12 -20 20 6 16 -10 19 -19 4z"/>
<path d="M12320 3056 c0 -2 7 -7 16 -10 8 -3 12 -2 9 4 -6 10 -25 14 -25 6z"/>
<path d="M12460 3018 c0 -21 5 -38 10 -38 6 0 10 15 10 34 0 19 6 36 13 39 6
3 2 4 -10 4 -20 -1 -23 -7 -23 -39z"/>
<path d="M12515 3050 c-8 -13 3 -30 18 -30 7 0 19 -5 27 -10 13 -9 13 -11 0
-20 -13 -8 -12 -10 3 -10 28 0 21 39 -9 46 -16 4 -23 12 -20 20 6 16 -10 19
-19 4z"/>
<path d="M12550 3056 c0 -2 7 -6 15 -10 8 -3 15 -1 15 4 0 6 -7 10 -15 10 -8
0 -15 -2 -15 -4z"/>
<path d="M12118 3023 c6 -2 18 -2 25 0 6 3 1 5 -13 5 -14 0 -19 -2 -12 -5z"/>
<path d="M12285 2990 c3 -5 11 -10 16 -10 6 0 7 5 4 10 -3 6 -11 10 -16 10 -6
0 -7 -4 -4 -10z"/>
<path d="M12415 2990 c-3 -5 -2 -10 4 -10 5 0 13 5 16 10 3 6 2 10 -4 10 -5 0
-13 -4 -16 -10z"/>
<path d="M12515 2990 c3 -5 11 -10 16 -10 6 0 7 5 4 10 -3 6 -11 10 -16 10 -6
0 -7 -4 -4 -10z"/>
<path d="M3357 2239 c-98 -23 -185 -101 -211 -190 -20 -66 -20 -82 0 -149 12
-39 29 -66 67 -105 82 -81 107 -87 400 -93 l247 -4 0 -107 c0 -77 4 -113 14
-127 14 -18 33 -19 458 -24 l443 -5 3 -47 c2 -38 0 -48 -12 -48 -9 0 -16 -4
-16 -9 0 -7 20 -68 36 -111 3 -9 13 9 25 45 23 73 23 75 3 75 -12 0 -14 10
-12 48 l3 47 451 5 c328 4 455 8 465 17 10 8 20 9 29 3 9 -6 220 -10 502 -10
544 0 518 3 518 -70 0 -30 -4 -39 -18 -42 -18 -3 -18 -6 2 -66 l21 -63 22 65
c21 64 21 66 2 66 -16 0 -19 7 -19 43 0 77 38 71 -522 77 l-503 5 -3 116 -3
117 248 4 c234 4 251 5 301 27 28 13 52 27 52 32 0 5 6 9 14 9 8 0 27 15 42
32 121 144 72 340 -105 422 -45 21 -56 21 -556 21 -571 0 -565 1 -647 -73 -67
-61 -93 -116 -93 -197 1 -85 23 -134 90 -193 78 -69 107 -75 388 -80 l248 -4
-3 -117 -3 -116 -460 -6 c-549 -8 -405 -8 -935 0 l-445 6 -3 116 -3 117 248 5
c159 3 261 9 283 17 137 47 220 184 190 311 -23 96 -119 186 -220 208 -62 13
-967 13 -1023 0z m1043 -20 c104 -31 190 -142 190 -245 0 -105 -81 -206 -192
-239 -76 -22 -980 -22 -1056 0 -144 43 -221 180 -180 319 16 55 99 138 158
159 39 13 116 16 544 16 344 1 510 -3 536 -10z m1920 -24 c207 -114 174 -394
-56 -461 -44 -12 -129 -14 -550 -12 l-499 3 -51 27 c-56 30 -109 84 -130 134
-20 47 -17 141 5 189 23 51 99 119 154 139 36 12 121 14 557 13 l515 -2 55
-30z"/>
<path d="M3570 2024 c0 -22 -2 -25 -15 -14 -23 19 -47 -6 -43 -44 3 -27 7 -31
36 -32 l32 -1 0 59 c0 32 -2 58 -5 58 -3 0 -5 -12 -5 -26z m-5 -63 c-3 -11
-12 -21 -20 -21 -19 0 -29 38 -14 56 11 13 14 13 27 1 9 -9 11 -23 7 -36z"/>
<path d="M3660 2029 c0 -15 -5 -19 -15 -15 -18 6 -45 -19 -45 -42 0 -29 15
-42 43 -40 26 2 27 5 27 60 0 32 -2 58 -5 58 -3 0 -5 -9 -5 -21z m-2 -58 c-4
-38 -38 -42 -38 -3 0 34 7 43 27 35 8 -3 13 -16 11 -32z"/>
<path d="M4140 2040 c0 -5 5 -10 10 -10 6 0 10 5 10 10 0 6 -4 10 -10 10 -5 0
-10 -4 -10 -10z"/>
<path d="M3416 1988 c-23 -50 -26 -83 -5 -45 13 22 69 24 69 2 0 -8 4 -15 9
-15 5 0 0 25 -12 55 -11 30 -24 55 -29 55 -5 0 -20 -24 -32 -52z m37 -16 c-21
-5 -25 2 -17 34 l7 29 13 -30 c10 -25 10 -31 -3 -33z"/>
<path d="M3711 2026 c-18 -22 -9 -77 14 -90 11 -6 24 -17 28 -23 4 -7 16 -13
25 -13 16 1 16 1 0 10 -15 9 -15 13 8 35 28 28 30 42 8 73 -18 25 -65 30 -83
8z m68 -10 c7 -8 11 -27 9 -43 -6 -50 -78 -40 -78 11 0 41 45 62 69 32z"/>
<path d="M4102 1983 c-2 -45 1 -53 16 -53 11 0 13 3 5 8 -6 4 -13 28 -16 52
l-4 45 -1 -52z"/>
<path d="M3936 2007 c-21 -16 -18 -68 4 -75 12 -4 13 -2 3 9 -20 21 -15 29 17
29 34 0 41 23 11 39 -13 7 -23 6 -35 -2z m44 -18 c0 -5 -12 -9 -26 -9 -22 0
-24 2 -14 14 12 15 40 11 40 -5z"/>
<path d="M4196 2007 c-20 -15 -19 -69 2 -73 7 -1 8 0 2 3 -15 7 -12 60 4 66
30 12 48 -36 24 -62 -11 -11 -10 -13 2 -9 8 3 16 19 18 36 4 38 -25 59 -52 39z"/>
<path d="M4300 2010 c-8 -5 -18 -6 -22 -4 -4 3 -8 -13 -8 -35 0 -23 5 -41 11
-41 7 0 9 9 6 23 -4 12 -2 28 2 36 14 23 39 5 44 -31 l4 -33 1 36 c2 40 -15
63 -38 49z"/>
<path d="M3832 1973 c-2 -43 -2 -43 33 -43 34 0 35 1 35 40 0 22 -4 40 -10 40
-5 0 -10 -16 -10 -35 0 -28 -4 -35 -19 -35 -15 0 -21 8 -24 38 l-4 37 -1 -42z"/>
<path d="M4017 2003 c-13 -12 -7 -24 19 -33 18 -7 24 -15 20 -26 -4 -10 -1
-14 6 -12 23 8 14 32 -16 47 -22 10 -25 15 -15 22 8 5 9 9 3 9 -6 0 -14 -3
-17 -7z"/>
<path d="M4055 2000 c3 -5 8 -10 11 -10 2 0 4 5 4 10 0 6 -5 10 -11 10 -5 0
-7 -4 -4 -10z"/>
<path d="M4140 1970 c0 -22 5 -40 10 -40 6 0 10 18 10 40 0 22 -4 40 -10 40
-5 0 -10 -18 -10 -40z"/>
<path d="M3965 1940 c-3 -5 -2 -10 4 -10 5 0 13 5 16 10 3 6 2 10 -4 10 -5 0
-13 -4 -16 -10z"/>
<path d="M4010 1940 c0 -6 7 -10 15 -10 8 0 15 2 15 4 0 2 -7 6 -15 10 -8 3
-15 1 -15 -4z"/>
<path d="M5423 1990 c0 -36 2 -50 4 -32 2 17 2 47 0 65 -2 17 -4 3 -4 -33z"/>
<path d="M6070 2040 c0 -5 5 -10 10 -10 6 0 10 5 10 10 0 6 -4 10 -10 10 -5 0
-10 -4 -10 -10z"/>
<path d="M5217 2027 c-8 -21 6 -37 39 -46 16 -4 29 -14 29 -22 0 -19 -42 -24
-62 -7 -14 11 -15 11 -11 -2 3 -10 18 -15 44 -15 32 0 40 4 42 22 2 16 -4 24
-32 33 -49 16 -50 45 -1 37 21 -3 33 -2 30 4 -9 14 -72 11 -78 -4z"/>
<path d="M5641 2026 c-18 -22 -9 -77 14 -90 11 -6 24 -17 28 -23 4 -7 16 -13
25 -13 16 1 16 1 0 10 -15 9 -15 13 8 35 28 28 30 42 8 73 -18 25 -65 30 -83
8z m68 -10 c7 -8 11 -27 9 -43 -6 -50 -78 -40 -78 11 0 41 45 62 69 32z"/>
<path d="M6032 1983 c-2 -45 1 -53 16 -53 11 0 13 3 5 8 -6 4 -13 28 -16 52
l-4 45 -1 -52z"/>
<path d="M5335 2006 c-20 -15 -17 -67 5 -74 12 -4 13 -2 3 9 -25 26 -7 74 23
62 17 -6 18 -60 2 -66 -10 -4 -10 -6 -1 -6 17 -1 33 32 27 56 -7 26 -37 35
-59 19z"/>
<path d="M5546 2004 c-31 -30 -16 -74 25 -74 16 0 29 4 29 9 0 4 -11 6 -25 3
-18 -3 -25 0 -25 12 0 11 9 16 30 16 17 0 30 4 30 9 0 12 -29 41 -40 41 -5 0
-16 -7 -24 -16z m44 -15 c0 -5 -9 -9 -20 -9 -22 0 -27 16 -7 23 15 5 27 -1 27
-14z"/>
<path d="M5866 2007 c-21 -16 -18 -68 4 -75 12 -4 13 -2 3 9 -20 21 -15 29 17
29 34 0 41 23 11 39 -13 7 -23 6 -35 -2z m44 -18 c0 -5 -12 -9 -26 -9 -22 0
-24 2 -14 14 12 15 40 11 40 -5z"/>
<path d="M6126 2007 c-20 -15 -19 -69 2 -73 7 -1 8 0 2 3 -15 7 -12 60 4 66
30 12 48 -36 24 -62 -11 -11 -10 -13 2 -9 8 3 16 19 18 36 4 38 -25 59 -52 39z"/>
<path d="M6230 2010 c-8 -5 -18 -6 -22 -4 -4 3 -8 -14 -7 -38 1 -44 3 -43 13
5 9 40 39 32 47 -13 l6 -35 2 36 c1 40 -17 63 -39 49z"/>
<path d="M5457 1970 c9 -22 21 -39 26 -37 13 4 39 77 27 77 -4 0 -12 -17 -17
-37 l-9 -38 -13 38 c-7 20 -16 37 -21 37 -5 0 -1 -18 7 -40z"/>
<path d="M5762 1973 c-2 -43 -2 -43 33 -43 34 0 35 1 35 40 0 22 -4 40 -10 40
-5 0 -10 -16 -10 -35 0 -28 -4 -35 -19 -35 -15 0 -21 8 -24 38 l-4 37 -1 -42z"/>
<path d="M5947 2003 c-13 -12 -7 -24 19 -33 18 -7 24 -15 20 -26 -4 -10 -1
-14 6 -12 23 8 14 32 -16 47 -22 10 -25 15 -15 22 8 5 9 9 3 9 -6 0 -14 -3
-17 -7z"/>
<path d="M5985 2000 c3 -5 8 -10 11 -10 2 0 4 5 4 10 0 6 -5 10 -11 10 -5 0
-7 -4 -4 -10z"/>
<path d="M6070 1970 c0 -22 5 -40 10 -40 6 0 10 18 10 40 0 22 -4 40 -10 40
-5 0 -10 -18 -10 -40z"/>
<path d="M5895 1940 c-3 -5 -2 -10 4 -10 5 0 13 5 16 10 3 6 2 10 -4 10 -5 0
-13 -4 -16 -10z"/>
<path d="M5940 1940 c0 -6 7 -10 15 -10 8 0 15 2 15 4 0 2 -7 6 -15 10 -8 3
-15 1 -15 -4z"/>
<path d="M8070 2084 c-111 -48 -179 -210 -151 -360 21 -116 75 -196 153 -228
55 -24 691 -24 746 0 210 87 210 501 0 588 -55 23 -695 23 -748 0z m760 -22
c85 -42 135 -160 128 -298 -5 -99 -41 -179 -101 -228 l-39 -31 -366 -3 c-351
-2 -368 -1 -399 18 -75 45 -123 152 -123 270 0 118 49 225 123 270 30 19 52
20 387 20 318 0 359 -2 390 -18z"/>
<path d="M8203 1905 c0 -33 2 -48 4 -32 4 22 9 27 34 27 24 0 29 -4 29 -25 0
-14 5 -25 10 -25 6 0 10 25 10 55 0 30 -4 55 -10 55 -5 0 -10 -11 -10 -25 0
-21 -5 -25 -29 -25 -25 0 -30 5 -34 28 -2 15 -4 0 -4 -33z"/>
<path d="M8324 1925 c-10 -8 -14 -15 -7 -15 6 0 15 5 18 10 4 6 11 8 16 5 16
-11 10 -24 -13 -27 -15 -2 -23 -10 -23 -23 0 -16 7 -20 36 -21 34 -2 35 -1 31
30 -5 31 -18 56 -31 56 -4 0 -16 -7 -27 -15z m40 -50 c-6 -16 -44 -21 -44 -7
0 14 12 22 31 22 12 0 16 -5 13 -15z"/>
<path d="M8509 1933 c-21 -5 -31 -41 -18 -65 10 -19 54 -25 64 -8 4 6 -6 7
-25 4 -23 -5 -30 -3 -30 10 0 11 9 16 30 16 20 0 30 5 30 15 0 17 -29 33 -51
28z m31 -24 c0 -5 -9 -9 -20 -9 -22 0 -27 16 -7 23 15 5 27 -1 27 -14z"/>
<path d="M8644 1925 c-10 -8 -14 -15 -7 -15 6 0 15 5 18 10 4 6 11 8 16 5 16
-11 10 -24 -13 -27 -15 -2 -23 -10 -23 -23 0 -16 7 -20 36 -21 34 -2 35 -1 31
30 -5 31 -18 56 -31 56 -4 0 -16 -7 -27 -15z m40 -50 c-6 -16 -44 -21 -44 -7
0 14 12 22 31 22 12 0 16 -5 13 -15z"/>
<path d="M8401 1926 c-2 -17 23 -76 32 -76 10 0 40 70 33 77 -6 6 -25 -39 -27
-60 0 -7 -9 6 -19 28 -10 22 -19 36 -19 31z"/>
<path d="M8256 1744 c-19 -19 -21 -54 -3 -78 16 -22 78 -19 85 4 4 13 3 13
-11 2 -38 -32 -84 7 -66 56 9 24 54 31 62 10 2 -7 8 -9 13 -5 5 4 2 12 -6 17
-23 15 -57 12 -74 -6z"/>
<path d="M8373 1705 c0 -33 2 -48 4 -32 4 22 9 27 34 27 24 0 29 -4 29 -25 0
-14 5 -25 10 -25 6 0 10 25 10 55 0 30 -4 55 -10 55 -5 0 -10 -11 -10 -25 0
-21 -5 -25 -29 -25 -25 0 -30 5 -34 28 -2 15 -4 0 -4 -33z"/>
<path d="M8496 1708 c-23 -50 -26 -83 -5 -45 13 22 69 24 69 2 0 -8 4 -15 9
-15 5 0 0 25 -12 55 -11 30 -24 55 -29 55 -5 0 -20 -24 -32 -52z m37 -16 c-21
-5 -25 2 -17 34 l7 29 13 -30 c10 -25 10 -31 -3 -33z"/>
<path d="M8588 1753 c19 -4 22 -11 22 -54 0 -27 5 -49 10 -49 6 0 10 22 10 49
0 43 3 50 23 54 12 2 -3 4 -33 4 -30 0 -45 -2 -32 -4z"/>
<path d="M9445 2085 c-116 -62 -183 -260 -155 -459 15 -108 66 -215 123 -261
l39 -30 336 -3 c186 -2 351 0 368 3 81 14 154 126 182 274 31 173 -23 378
-121 456 l-39 30 -351 3 c-305 2 -356 0 -382 -13z m756 -28 c84 -56 135 -209
126 -376 -6 -113 -25 -181 -70 -248 -56 -84 -52 -83 -448 -83 -344 0 -346 0
-380 23 -84 56 -135 209 -126 376 6 113 25 181 70 248 56 84 52 83 448 83 344
0 346 0 380 -23z"/>
<path d="M9550 1825 l0 -55 35 0 c38 0 55 20 55 64 0 28 -25 46 -64 46 -25 0
-26 -3 -26 -55z m64 29 c9 -8 16 -22 16 -29 0 -20 -28 -45 -51 -45 -16 0 -19
7 -19 45 0 38 3 45 19 45 11 0 27 -7 35 -16z"/>
<path d="M9663 1810 c0 -25 2 -35 4 -22 2 12 2 32 0 45 -2 12 -4 2 -4 -23z"/>
<path d="M9700 1830 c0 -11 6 -20 13 -20 6 0 19 -5 27 -10 13 -9 13 -11 0 -20
-13 -8 -12 -10 3 -10 28 0 21 39 -9 46 -16 4 -23 12 -20 20 3 8 1 14 -4 14 -6
0 -10 -9 -10 -20z"/>
<path d="M9730 1846 c0 -2 7 -6 15 -10 8 -3 15 -1 15 4 0 6 -7 10 -15 10 -8 0
-15 -2 -15 -4z"/>
<path d="M9784 1836 c-3 -8 -4 -25 -2 -38 3 -26 43 -38 62 -18 8 9 4 10 -16 5
-24 -6 -28 -3 -34 20 -5 18 -2 30 7 36 11 7 11 9 1 9 -7 0 -15 -6 -18 -14z"/>
<path d="M9825 1840 c3 -5 8 -10 11 -10 2 0 4 5 4 10 0 6 -5 10 -11 10 -5 0
-7 -4 -4 -10z"/>
<path d="M9867 1833 c-12 -34 0 -63 26 -62 16 1 18 3 5 6 -11 3 -18 17 -20 41
-3 32 -4 34 -11 15z"/>
<path d="M9923 1810 c0 -25 2 -35 4 -22 2 12 2 32 0 45 -2 12 -4 2 -4 -23z"/>
<path d="M9960 1830 c0 -11 6 -20 13 -20 6 0 19 -5 27 -10 13 -9 13 -11 0 -20
-13 -8 -12 -10 3 -10 28 0 21 39 -9 46 -16 4 -23 12 -20 20 3 8 1 14 -4 14 -6
0 -10 -9 -10 -20z"/>
<path d="M9990 1846 c0 -2 7 -6 15 -10 8 -3 15 -1 15 4 0 6 -7 10 -15 10 -8 0
-15 -2 -15 -4z"/>
<path d="M10040 1835 c0 -9 12 -20 26 -25 18 -7 24 -15 20 -26 -4 -10 -1 -14
6 -12 23 8 19 28 -9 40 -38 17 -39 18 -23 28 13 8 12 10 -2 10 -10 0 -18 -7
-18 -15z"/>
<path d="M10085 1840 c3 -5 8 -10 11 -10 2 0 4 5 4 10 0 6 -5 10 -11 10 -5 0
-7 -4 -4 -10z"/>
<path d="M9695 1780 c3 -5 11 -10 16 -10 6 0 7 5 4 10 -3 6 -11 10 -16 10 -6
0 -7 -4 -4 -10z"/>
<path d="M9955 1780 c3 -5 11 -10 16 -10 6 0 7 5 4 10 -3 6 -11 10 -16 10 -6
0 -7 -4 -4 -10z"/>
<path d="M10040 1780 c0 -6 7 -10 15 -10 8 0 15 2 15 4 0 2 -7 6 -15 10 -8 3
-15 1 -15 -4z"/>
<path d="M9500 1660 c-16 -30 -8 -71 15 -84 11 -6 24 -17 28 -23 4 -7 18 -13
30 -12 21 0 21 1 -3 11 l-25 10 22 9 c27 10 39 52 24 85 -14 32 -75 35 -91 4z
m79 -12 c13 -36 -2 -63 -34 -63 -37 0 -53 25 -37 59 15 34 59 36 71 4z"/>
<path d="M9892 1623 c-2 -43 1 -53 14 -53 12 0 14 3 6 13 -6 7 -12 30 -15 52
-3 36 -4 35 -5 -12z"/>
<path d="M9726 1644 c-31 -30 -16 -74 25 -74 16 0 29 4 29 9 0 4 -11 6 -25 3
-18 -3 -25 0 -25 12 0 11 9 16 30 16 24 0 28 3 23 18 -13 33 -34 40 -57 16z
m44 -15 c0 -5 -12 -9 -27 -9 -27 1 -27 1 -9 15 19 14 36 12 36 -6z"/>
<path d="M9985 1646 c-20 -15 -17 -67 5 -74 12 -4 13 -2 3 9 -25 26 -7 74 23
62 17 -6 18 -60 2 -66 -10 -4 -10 -6 -1 -6 17 -1 33 32 27 56 -7 26 -37 35
-59 19z"/>
<path d="M10088 1653 c-14 -3 -18 -14 -16 -46 l1 -42 4 38 c2 20 8 37 14 37 5
0 12 0 17 0 4 1 10 -16 13 -37 l7 -38 -2 44 c-1 45 -7 52 -38 44z"/>
<path d="M9623 1615 c2 -38 4 -40 35 -41 31 -1 32 0 31 40 -1 42 -3 41 -13 -6
-4 -16 -13 -28 -21 -28 -8 0 -17 12 -21 28 -10 46 -13 49 -11 7z"/>
<path d="M9805 1640 c-8 -13 3 -30 18 -30 7 0 19 -5 27 -10 13 -9 13 -11 0
-20 -13 -8 -12 -10 3 -10 28 0 21 39 -9 46 -16 4 -23 12 -20 20 6 16 -10 19
-19 4z"/>
<path d="M9840 1646 c0 -2 7 -6 15 -10 8 -3 15 -1 15 4 0 6 -7 10 -15 10 -8 0
-15 -2 -15 -4z"/>
<path d="M9943 1610 c0 -25 2 -35 4 -22 2 12 2 32 0 45 -2 12 -4 2 -4 -23z"/>
<path d="M9805 1580 c3 -5 11 -10 16 -10 6 0 7 5 4 10 -3 6 -11 10 -16 10 -6
0 -7 -4 -4 -10z"/>
<path d="M4368 1186 c-76 -28 -119 -70 -160 -162 -33 -73 -31 -199 3 -274 33
-71 71 -115 123 -143 40 -22 47 -22 456 -22 409 0 416 0 456 22 52 28 90 72
123 143 36 78 36 200 0 280 -33 71 -71 115 -123 143 -40 22 -50 22 -441 24
-316 2 -408 0 -437 -11z m873 -29 c185 -98 185 -436 0 -534 -44 -23 -44 -23
-451 -23 -407 0 -407 0 -451 23 -185 98 -185 436 0 534 44 23 44 23 451 23
407 0 407 0 451 -23z"/>
<path d="M4444 965 c-10 -25 4 -45 36 -51 38 -8 48 -23 26 -39 -18 -14 -56 -9
-56 7 0 5 -5 6 -12 2 -7 -5 -5 -11 7 -21 38 -27 91 -7 83 33 -2 10 -18 22 -37
29 -19 6 -37 17 -39 23 -6 18 28 27 49 14 26 -16 34 -15 19 3 -7 8 -26 15 -42
15 -16 0 -31 -6 -34 -15z"/>
<path d="M4951 943 c-1 -14 -9 -23 -23 -26 -23 -4 -23 -4 -1 -6 14 -1 23 -9
26 -23 4 -23 4 -23 6 -1 0 12 9 24 19 26 15 4 15 5 0 6 -9 0 -19 11 -21 24 -4
22 -4 22 -6 0z"/>
<path d="M5051 943 c0 -12 -9 -24 -18 -26 -16 -4 -16 -5 -1 -6 9 0 19 -11 21
-23 4 -23 4 -23 6 -1 1 14 9 23 24 26 22 4 22 4 0 6 -14 1 -23 9 -26 24 -4 22
-4 22 -6 0z"/>
<path d="M4562 938 c-17 -17 -15 -54 4 -72 19 -20 38 -20 54 -1 11 13 8 14
-19 9 -30 -6 -31 -6 -31 30 0 29 4 36 20 36 11 0 20 -4 20 -10 0 -5 5 -10 11
-10 8 0 8 5 -1 15 -15 18 -42 19 -58 3z"/>
<path d="M4650 930 c-6 -11 -8 -31 -4 -44 11 -45 67 -45 78 0 9 34 -10 64 -39
64 -14 0 -29 -8 -35 -20z m58 -24 c4 -34 -8 -49 -31 -40 -17 6 -24 54 -10 68
15 15 38 0 41 -28z"/>
<path d="M4752 900 c1 -40 2 -45 5 -20 3 19 12 43 20 53 10 10 12 17 5 17 -7
0 -12 -6 -12 -12 0 -9 -4 -8 -10 2 -7 11 -9 -1 -8 -40z"/>
<path d="M4817 943 c-13 -12 -7 -70 8 -83 16 -13 55 -5 55 12 0 6 -6 6 -15 -2
-12 -10 -18 -10 -30 0 -24 20 -17 30 20 30 38 0 40 2 25 31 -10 18 -50 26 -63
12z m51 -20 c2 -8 -6 -13 -22 -13 -25 0 -33 10 -19 24 10 10 36 3 41 -11z"/>
<path d="M5130 940 c0 -5 5 -10 10 -10 6 0 10 5 10 10 0 6 -4 10 -10 10 -5 0
-10 -4 -10 -10z"/>
<path d="M5130 860 c0 -5 5 -10 10 -10 6 0 10 5 10 10 0 6 -4 10 -10 10 -5 0
-10 -4 -10 -10z"/>
<path d="M6150 1183 c-100 -35 -180 -115 -222 -221 -17 -44 -22 -77 -21 -147
0 -127 25 -189 113 -276 57 -58 75 -70 134 -88 66 -20 87 -21 621 -21 528 0
556 1 619 20 124 39 224 162 248 305 28 165 -61 343 -207 415 l-50 25 -595 2
c-522 2 -601 0 -640 -14z m1262 -20 c69 -32 112 -67 152 -126 126 -186 64
-454 -129 -555 l-50 -27 -610 0 -610 0 -50 27 c-65 33 -129 104 -163 176 -24
50 -27 69 -27 162 0 96 3 110 29 164 48 99 136 172 233 195 21 5 295 9 608 8
563 -2 571 -2 617 -24z"/>
<path d="M6232 923 c0 -38 3 -53 5 -35 6 42 37 44 61 2 9 -16 20 -30 25 -30
12 0 8 12 -10 32 -15 17 -15 19 0 36 10 10 17 24 17 30 0 16 -34 32 -69 32
l-31 0 2 -67z m67 48 c23 -15 5 -41 -29 -41 -25 0 -30 4 -30 25 0 19 5 25 23
25 12 0 28 -4 36 -9z"/>
<path d="M6827 972 c-23 -25 -21 -68 3 -92 24 -24 48 -25 78 -4 26 18 30 74 6
98 -21 22 -67 20 -87 -2z m75 -9 c24 -22 23 -58 -3 -76 -52 -37 -97 28 -56 81
13 17 37 15 59 -5z"/>
<path d="M6962 923 l1 -68 6 58 6 58 33 -56 c18 -30 37 -55 43 -55 5 0 8 30 7
68 l-1 67 -6 -60 -6 -60 -33 58 c-19 31 -38 57 -43 57 -5 0 -8 -30 -7 -67z"/>
<path d="M6765 966 c-10 -11 -10 -37 0 -83 9 -39 21 -25 17 18 -3 23 0 44 6
48 6 4 6 10 -2 17 -8 8 -14 8 -21 0z"/>
<path d="M7121 953 c0 -12 -9 -24 -18 -26 -16 -4 -16 -5 -1 -6 9 0 19 -11 21
-23 4 -23 4 -23 6 -1 1 14 9 23 24 26 22 4 22 4 0 6 -14 1 -23 9 -26 24 -4 22
-4 22 -6 0z"/>
<path d="M7231 953 c-1 -14 -9 -23 -23 -26 -23 -4 -23 -4 -1 -6 14 -1 23 -9
26 -23 4 -23 4 -23 6 -1 1 14 9 23 24 26 22 4 22 4 0 6 -14 1 -23 9 -26 24 -4
22 -4 22 -6 0z"/>
<path d="M6362 948 c-17 -17 -15 -53 4 -72 19 -20 25 -20 50 0 19 15 19 15 -1
6 -25 -11 -45 -5 -45 14 0 9 11 14 31 14 26 0 30 3 27 23 -3 25 -45 36 -66 15z
m56 -15 c2 -8 -6 -13 -22 -13 -25 0 -33 10 -19 24 10 10 36 3 41 -11z"/>
<path d="M6461 891 c1 -47 3 -59 9 -41 4 14 5 36 3 50 -5 32 10 55 31 47 22
-9 21 -63 -1 -77 -17 -10 -16 -10 2 -8 25 4 43 52 29 76 -7 10 -25 17 -43 18
l-31 1 1 -66z"/>
<path d="M6560 940 c-21 -39 12 -87 50 -75 11 3 20 11 20 17 0 6 -6 6 -15 -2
-12 -10 -18 -10 -30 0 -24 20 -17 30 20 30 38 0 40 2 25 31 -14 25 -56 25 -70
-1z m58 -7 c2 -8 -6 -13 -22 -13 -25 0 -33 10 -19 24 10 10 36 3 41 -11z"/>
<path d="M6666 951 c-4 -6 5 -9 20 -8 36 3 43 -21 7 -25 -20 -2 -29 -9 -31
-26 -4 -26 21 -40 42 -23 10 8 16 9 21 1 3 -5 11 -10 16 -10 6 0 7 5 3 12 -4
7 -10 28 -14 48 -4 29 -10 36 -32 38 -14 2 -29 -1 -32 -7z m54 -50 c0 -5 -7
-14 -15 -21 -18 -15 -42 1 -31 19 8 13 46 15 46 2z"/>
<path d="M7312 860 c0 -14 2 -19 5 -12 2 6 2 18 0 25 -3 6 -5 1 -5 -13z"/>
<path d="M6056 758 c-20 -28 -20 -66 0 -98 10 -17 13 -18 8 -5 -15 45 -15 65
-1 94 18 36 15 40 -7 9z"/>
<path d="M6400 762 c0 -13 -7 -18 -22 -18 -20 1 -23 -4 -23 -34 0 -27 4 -35
20 -37 17 -2 17 -1 2 3 -13 4 -17 14 -15 32 5 40 32 34 39 -8 5 -29 7 -26 8
23 0 31 -1 57 -4 57 -3 0 -5 -8 -5 -18z"/>
<path d="M7090 762 c0 -13 -7 -18 -22 -18 -20 1 -23 -4 -23 -34 0 -31 3 -35
28 -36 26 -1 27 1 27 52 0 30 -2 54 -5 54 -3 0 -5 -8 -5 -18z m-5 -53 c0 -15
-7 -25 -17 -27 -13 -3 -18 3 -18 21 0 13 3 27 7 31 13 12 28 -1 28 -25z"/>
<path d="M7212 763 c-4 -10 -5 -36 -1 -58 l6 -40 2 38 c0 22 6 37 14 37 8 0 7
4 -3 10 -13 9 -13 11 0 20 9 6 11 10 3 10 -7 0 -16 -8 -21 -17z"/>
<path d="M7423 725 c0 -33 2 -45 4 -27 2 18 2 45 0 60 -2 15 -4 0 -4 -33z"/>
<path d="M7496 752 c15 -32 15 -52 0 -97 -5 -13 -2 -12 8 5 21 35 20 73 -4
101 l-20 24 16 -33z"/>
<path d="M6091 754 c0 -11 3 -14 6 -6 3 7 2 16 -1 19 -3 4 -6 -2 -5 -13z"/>
<path d="M6110 760 c0 -5 5 -10 10 -10 6 0 10 5 10 10 0 6 -4 10 -10 10 -5 0
-10 -4 -10 -10z"/>
<path d="M6151 718 c2 -52 2 -52 8 -13 6 40 6 40 14 11 4 -15 10 -26 13 -23 6
6 -22 77 -30 77 -4 0 -5 -24 -5 -52z"/>
<path d="M6214 734 c-8 -20 -13 -38 -10 -41 3 -3 9 8 13 23 8 29 8 29 14 -11
6 -39 6 -39 8 13 0 28 -1 52 -5 52 -3 0 -12 -16 -20 -36z"/>
<path d="M6751 754 c0 -11 3 -14 6 -6 3 7 2 16 -1 19 -3 4 -6 -2 -5 -13z"/>
<path d="M6770 760 c0 -5 5 -10 10 -10 6 0 10 5 10 10 0 6 -4 10 -10 10 -5 0
-10 -4 -10 -10z"/>
<path d="M7448 755 c-2 -2 -2 -22 0 -44 3 -30 8 -41 21 -40 10 0 11 2 4 6 -16
6 -17 60 -1 65 8 3 6 6 -4 10 -9 4 -18 5 -20 3z"/>
<path d="M6270 731 c-8 -15 -8 -27 0 -41 11 -20 44 -27 54 -11 3 4 -6 6 -19 3
-18 -3 -25 0 -25 12 0 11 9 16 26 16 19 0 25 5 22 18 -5 25 -44 27 -58 3z m45
-1 c3 -5 -3 -10 -14 -10 -12 0 -21 5 -21 10 0 6 6 10 14 10 8 0 18 -4 21 -10z"/>
<path d="M6443 710 c0 -25 2 -35 4 -22 2 12 2 32 0 45 -2 12 -4 2 -4 -23z"/>
<path d="M6472 712 c-2 -41 -1 -42 28 -40 28 2 30 5 29 43 l-2 40 -6 -35 c-9
-51 -38 -53 -44 -3 l-4 38 -1 -43z"/>
<path d="M6551 705 l2 -40 6 35 c4 22 12 35 21 35 9 0 17 -13 21 -35 l6 -35 4
34 c6 49 27 51 32 4 l4 -38 1 41 2 42 -50 -1 -50 -1 1 -41z"/>
<path d="M6676 735 c-4 -11 3 -19 19 -25 33 -13 33 -34 -1 -27 -16 3 -22 1
-16 -5 14 -14 46 -5 50 14 2 9 -5 19 -17 23 -27 8 -27 29 -1 22 11 -3 18 -1
14 4 -9 15 -41 10 -48 -6z"/>
<path d="M6845 740 c-4 -7 2 -9 19 -4 15 3 26 2 26 -4 0 -5 -11 -13 -25 -16
-16 -4 -25 -13 -25 -26 0 -16 7 -19 33 -18 33 1 33 2 28 37 -5 27 -12 37 -28
39 -11 2 -24 -2 -28 -8z m39 -45 c-6 -16 -34 -21 -34 -7 0 13 11 22 26 22 8 0
11 -6 8 -15z"/>
<path d="M6927 743 c-13 -12 -7 -24 18 -33 33 -13 33 -34 -1 -27 -16 3 -22 1
-16 -5 15 -15 46 -5 50 14 2 12 -5 19 -22 24 -14 3 -23 11 -20 16 4 5 15 8 25
5 11 -3 17 -1 13 4 -6 10 -38 12 -47 2z"/>
<path d="M7132 738 c-25 -25 -6 -68 30 -68 10 0 18 4 18 9 0 5 -8 7 -19 4 -11
-3 -21 2 -24 11 -5 12 0 16 23 16 17 0 30 4 30 8 0 12 -22 32 -35 32 -6 0 -16
-5 -23 -12z m43 -8 c3 -5 -3 -10 -14 -10 -12 0 -21 5 -21 10 0 6 6 10 14 10 8
0 18 -4 21 -10z"/>
<path d="M7255 740 c-5 -9 -1 -10 13 -6 11 4 23 3 26 -3 3 -5 -5 -12 -19 -15
-16 -4 -25 -13 -25 -26 0 -16 7 -19 33 -18 33 1 33 2 28 37 -5 27 -12 37 -28
39 -11 2 -24 -2 -28 -8z m39 -45 c-6 -16 -34 -21 -34 -7 0 13 11 22 26 22 8 0
11 -6 8 -15z"/>
<path d="M7331 728 c-1 -37 8 -58 28 -58 13 0 13 2 3 9 -8 5 -18 24 -22 42 -7
31 -8 31 -9 7z"/>
<path d="M7383 710 c0 -25 2 -35 4 -22 2 12 2 32 0 45 -2 12 -4 2 -4 -23z"/>
</g>
</svg>
